<?xml version="1.0" encoding="utf-8"?>
<!-- Generator: Adobe Illustrator 21.1.0, SVG Export Plug-In . SVG Version: 6.00 Build 0)  -->
<svg version="1.1" id="Layer_1" xmlns="http://www.w3.org/2000/svg" xmlns:xlink="http://www.w3.org/1999/xlink" x="0px" y="0px"
	 viewBox="0 0 748 91" style="enable-background:new 0 0 748 91;" xml:space="preserve">
<style type="text/css">
	.st0{fill:#FFFFFF;}
	.st1{fill:#90DC4B;}
</style>
<title>Artboard 1</title>
<path class="st0" d="M492.4,15.3V24h12.8v5.8h-12.8v8.7h13.2v5.8h-19.4v-35h19.5v5.8h-13.2v0.2H492.4z"/>
<path class="st0" d="M693.6,15.3V24h12.8v5.8h-12.8v8.7h13.2v5.8h-19.4v-35h19.4v5.8h-13.2V15.3z"/>
<path class="st0" d="M132.7,35.8h-12.5l-4,8.5h-6.6l16.8-36h0.2l16.8,36h-6.8L132.7,35.8z M130.3,30.2l-3.8-9.5l-3.9,9.5H130.3z"/>
<path class="st0" d="M169.6,44.3l-11.5-14.8v14.8h-6.2v-35h12.5c6,0,10.8,4.3,10.8,10.2s-4.3,9.2-9.6,9.8l12,14.9L169.6,44.3z
	 M158.1,15.1v9h6.1c2.5,0,4.6-2,4.7-4.5c0-2.5-2-4.5-4.5-4.5c0,0,0,0-0.1,0H158.1z"/>
<path class="st0" d="M417.3,44.3l-11.4-14.8v14.8h-6.2v-35h12.5c6,0,10.8,4.3,10.8,10.2s-4.3,9.2-9.6,9.8l12,14.9L417.3,44.3z
	 M405.9,15.1v9h6.1c2.5,0,4.6-2,4.7-4.5c0-2.5-2-4.5-4.5-4.5c0,0,0,0-0.1,0H405.9z"/>
<path class="st0" d="M210.9,34c0,5.8-4.7,10.2-11.3,10.2h-11.3v-35h11.3c6,0,10.6,4.3,10.6,10.2c0.1,2.8-1.1,5.4-3.3,7.1
	C209.4,28.2,210.9,31,210.9,34z M194.3,15.1v8.6h5.3c2.2,0.2,4.2-1.5,4.4-3.8c0-0.2,0-0.3,0-0.5c0.1-2.3-1.7-4.3-4.1-4.3
	c-0.1,0-0.2,0-0.3,0C199.6,15.1,194.3,15.1,194.3,15.1z M204.4,34c-0.1-2.6-2.2-4.6-4.8-4.5h-5.3v8.9h5.3c2.5,0.1,4.6-1.8,4.8-4.2
	C204.4,34.1,204.4,34,204.4,34z"/>
<path class="st0" d="M229.7,15.3V24h12.8v5.8h-12.8v8.7h13.2v5.8h-19.5v-35h19.4v5.8h-13.2v0.2H229.7z"/>
<path class="st0" d="M262.4,15.1h-8.9V9.3h24.1v5.8h-8.9v29.2h-6.2V15.1H262.4z"/>
<path class="st0" d="M327,15.2v8.7h13v5.8h-13v14.6h-6.2v-35h19.6v5.8L327,15.2z"/>
<path class="st0" d="M351,26.7c0.2-10.4,8.8-18.6,19.2-18.3c10,0.2,18.1,8.3,18.3,18.3c-0.2,10.4-8.8,18.6-19.2,18.3
	C359.3,44.8,351.2,36.7,351,26.7z M355.5,3.8c0.1-2,1.8-3.6,3.8-3.5c1.9,0.1,3.4,1.6,3.5,3.5c-0.1,2-1.8,3.6-3.8,3.5
	C357.1,7.2,355.6,5.7,355.5,3.8z M382.2,26.7c0-6.9-5.6-12.4-12.4-12.4s-12.4,5.6-12.4,12.4l0,0c0,6.9,5.6,12.4,12.4,12.4
	S382.2,33.6,382.2,26.7z M376.8,3.7c0.1-2,1.8-3.6,3.8-3.5c1.9,0.1,3.4,1.6,3.5,3.5c0,2-1.7,3.6-3.6,3.6
	C378.4,7.3,376.8,5.8,376.8,3.7C376.8,3.8,376.8,3.7,376.8,3.7L376.8,3.7z"/>
<path class="st0" d="M472.3,8.5v35.8h-6.2V21.5l-11.8,10.3l-11.9-10.4v22.8h-6.2V8.5h0.1l18,15.4L472,8.5H472.3z"/>
<path class="st0" d="M547,26.8c0,10.2-7.9,17.4-18.7,17.4H519v-35h9.4C539.1,9.3,547,16.5,547,26.8z M540.7,26.8
	c0-6.9-5-11.6-12.3-11.6h-3.1v23.2h3.1C535.7,38.4,540.7,33.7,540.7,26.8L540.7,26.8z"/>
<path class="st0" d="M576.9,38.4v5.8h-19.4v-35h6.2v29.2H576.9z"/>
<path class="st0" d="M588,9.3h6.2v35H588V9.3z"/>
<path class="st0" d="M636.6,9.3V45h-0.1l-22.2-22v21.3H608V8.6h0.1l22.2,22V9.3H636.6z"/>
<path class="st0" d="M748,9.3V45h-0.1l-22.2-22v21.3h-6.2V8.6h0.1l22.3,22V9.3H748z"/>
<path class="st0" d="M674.4,44.3h-8.6c-10.8,0-18.7-7.3-18.7-17.4S655,9.4,665.8,9.4h6v5.8h-6c-7.4,0-12.3,4.7-12.3,11.6
	s5,11.6,12.3,11.6h2.3v-8.7H663v-5.8h11.5L674.4,44.3z"/>
<path class="st0" d="M287.5,38.3h11c2.5,0,4.5-2.1,4.5-4.6l0,0c0-2.5-2-4.5-4.4-4.5c0,0,0,0-0.1,0l-1.6-0.1
	c-6.3,0-10.5-3.3-10.5-9.8s4.9-10,10.8-10h10.1v5.8h-10.1c-2.5,0-4.5,1.6-4.5,4.2s2,3.8,4.5,3.8l1.6,0.1c6.6,0,10.5,3.6,10.5,10.5
	c0,6.5-4.9,10.5-10.8,10.5h-11V38.3z"/>
<path class="st0" d="M157.3,66.4L147,88.5h-0.1l-4.6-9.8l-4.5,9.8l0,0l-10.3-22.1h3.5l6.8,14.7l2.8-6.1l-4-8.7h3.5l2.2,4.9l2.2-4.9
	h3.4l-4,8.6l2.8,6.2l6.8-14.7H157.3z"/>
<path class="st0" d="M165,69.3v6.3h8.3v3.1H165v6.2h8.5V88h-11.7V66.4h11.7v3.1H165V69.3z"/>
<path class="st0" d="M197.9,77.2c0,6.3-4.9,10.8-11.6,10.8h-5.4V66.4h5.4C193,66.4,197.9,70.9,197.9,77.2z M194.6,77.2
	c0-4.6-3.4-7.8-8.2-7.8h-2.2v15.5h2.2C191.3,85,194.6,81.8,194.6,77.2z"/>
<path class="st0" d="M203.9,66.4h3.3V88h-3.3V66.4z"/>
<path class="st0" d="M250.4,66.4V88h-3.3v-9.2h-10.5V88h-3.3V66.4h3.3v9.3h10.5v-9.3H250.4z"/>
<path class="st0" d="M284.1,72.6c0,3.5-2.9,6.3-6.3,6.3c-0.1,0-0.1,0-0.2,0H274V88h-3.3V66.4h6.8c3.5-0.1,6.4,2.6,6.5,6
	C284.1,72.5,284.1,72.5,284.1,72.6z M280.9,72.6c0-1.8-1.4-3.2-3.2-3.2c0,0,0,0-0.1,0H274v6.3h3.6c1.7,0.1,3.2-1.2,3.3-3
	C280.9,72.7,280.9,72.7,280.9,72.6L280.9,72.6z"/>
<path class="st0" d="M289.7,81.3V66.4h3.3v14.9c0,2.3,1.9,4.1,4.1,4.1c0.1,0,0.2,0,0.2,0c2.3,0.1,4.3-1.7,4.4-4v-0.1V66.4h3.3v14.9
	c0,4.1-2.9,7.2-7.5,7.2C292.6,88.5,289.7,85.4,289.7,81.3z"/>
<path class="st0" d="M325.7,81.8c0,3.9-2.8,6.3-6.8,6.3H312V66.4h6.9c3.4-0.2,6.3,2.5,6.4,5.8c0,0.1,0,0.2,0,0.2
	c0,1.8-0.8,3.5-2.2,4.6C324.6,78.2,325.6,79.9,325.7,81.8z M315.3,69.4v6.1h3.6c1.7,0,3-1.4,3-3s-1.4-3-3-3L315.3,69.4L315.3,69.4z
	 M322.4,81.8c-0.1-1.8-1.7-3.3-3.5-3.2h-3.6v6.3h3.6C320.7,85,322.3,83.6,322.4,81.8z"/>
<path class="st0" d="M343.9,84.9V88h-11.5V66.4h3.3V85L343.9,84.9L343.9,84.9z"/>
<path class="st0" d="M349.6,66.4h3.2V88h-3.2V66.4z"/>
<path class="st0" d="M358.8,77.2c0-6.3,4.9-10.8,11.6-10.8h3.2v3.1h-3.2c-5,0-8.2,3.1-8.2,7.8s3.3,7.7,8.2,7.7h3.2v3h-3.2
	C363.7,87.9,358.8,83.5,358.8,77.2z"/>
<path class="st0" d="M396,69.3v6.3h8.3v3.1H396v6.2h8.5V88h-11.7V66.4h11.8v3.1H396V69.3z"/>
<path class="st0" d="M433.8,66v22h-3.2V72.6l-7.6,6.3l-7.5-6.3V88h-3.2V65.9h0.1l10.8,9L433.8,66z"/>
<path class="st0" d="M455.2,72.5c0,3.5-2.9,6.3-6.3,6.3c-0.1,0-0.1,0-0.2,0H445V88h-3.2V66.4h6.8C452.2,66.4,455.2,69,455.2,72.5z
	 M451.9,72.5c0-1.8-1.4-3.2-3.2-3.2c0,0,0,0-0.1,0H445v6.3h3.6c1.7,0.1,3.2-1.2,3.3-2.9C451.9,72.7,451.9,72.6,451.9,72.5z"/>
<path class="st0" d="M472,84.9V88h-11.4V66.4h3.2V85L472,84.9L472,84.9z"/>
<path class="st0" d="M475.4,77.2c-0.1-6.4,4.9-11.7,11.3-11.8c6.4-0.1,11.7,4.9,11.8,11.3s-4.9,11.7-11.3,11.8c-0.1,0-0.2,0-0.3,0
	C480.7,88.6,475.5,83.6,475.4,77.2L475.4,77.2z M495.3,77.2c0-4.6-3.6-8.4-8.2-8.4s-8.4,3.6-8.4,8.2s3.6,8.4,8.2,8.4h0.1
	c4.5,0.1,8.2-3.4,8.3-7.9C495.3,77.5,495.3,77.3,495.3,77.2L495.3,77.2z"/>
<path class="st0" d="M511,77.6V88h-3.3V77.6l-6.6-11.1h3.6l4.6,7.8l4.6-7.8h3.6L511,77.6z"/>
<path class="st0" d="M544.1,66v22h-3.3V72.6l-7.6,6.3l-7.6-6.3V88h-3.3V65.9h0.1l10.8,9L544.1,66z"/>
<path class="st0" d="M555.5,69.3v6.3h8.3v3.1h-8.3v6.2h8.5V88h-11.8V66.4H564v3.1h-8.5V69.3z"/>
<path class="st0" d="M588.7,66.4v22h-0.1l-13.7-14.8V88h-3.3V65.9h0.1l13.7,14.7V66.4H588.7z"/>
<path class="st0" d="M599.6,69.5h-5.7v-3.1h14.5v3.1h-5.6V88h-3.3L599.6,69.5L599.6,69.5z"/>
<path class="st0" d="M111.3,84.9h6.5c1.8,0.1,3.3-1.3,3.4-3.1c0.1-1.8-1.3-3.3-3.1-3.4c-0.1,0-0.2,0-0.4,0H117c-4.4,0-6.5-2.5-6.5-6
	s2.3-6,6.5-6h6.1v3.1h-6.2c-1.6-0.2-3,1-3.2,2.6s1,3,2.6,3.2c0.2,0,0.4,0,0.6,0h0.8c4.5,0,6.6,2.8,6.6,6.3s-2.4,6.3-6.6,6.3h-6.4
	V84.9z"/>
<path class="st0" d="M214.3,84.9h6.5c1.8,0.1,3.3-1.3,3.4-3.1c0.1-1.8-1.3-3.3-3.1-3.4c-0.1,0-0.2,0-0.4,0H220c-4.5,0-6.5-2.5-6.5-6
	s2.3-6,6.5-6h6.2v3.1H220c-1.6-0.2-3,1-3.2,2.6s1,3,2.6,3.2c0.2,0,0.4,0,0.6,0h0.8c4.5,0,6.6,2.8,6.6,6.3S225,88,220.8,88h-6.4
	L214.3,84.9L214.3,84.9z"/>
<path class="st0" d="M625.4,84.9h6.5c1.8,0.1,3.3-1.3,3.4-3.1c0.1-1.8-1.3-3.3-3.1-3.4c-0.1,0-0.2,0-0.4,0H631c-4.5,0-6.5-2.5-6.5-6
	s2.3-6,6.5-6h6.2v3.1H631c-1.6-0.2-3,1-3.2,2.6s1,3,2.6,3.2c0.2,0,0.4,0,0.6,0h0.8c4.5,0,6.6,2.8,6.6,6.3s-2.4,6.3-6.6,6.3h-6.4
	C625.5,88,625.4,84.9,625.4,84.9z"/>
<path class="st0" d="M648.4,69.3v6.3h8.3v3.1h-8.3v6.2h8.5V88h-11.7V66.4h11.7v3.1h-8.5V69.3z"/>
<path class="st0" d="M674.9,87.9l-7.5-9.5V88h-3.3V66.4h7.1c3.5-0.1,6.4,2.6,6.5,6v0.1c0,3.5-2.8,5.9-6.4,6.1l7.5,9.4L674.9,87.9
	L674.9,87.9z M667.4,69.5v6.2h3.8c1.7,0,3.1-1.4,3.1-3.1s-1.4-3.1-3.1-3.1l0,0H667.4z"/>
<path class="st0" d="M701.3,66.4l-10.3,22h-0.1l-10.3-21.9h3.5l6.8,14.6l6.8-14.6L701.3,66.4L701.3,66.4z"/>
<path class="st0" d="M705.9,66.4h3.3V88h-3.3V66.4z"/>
<path class="st0" d="M715.1,77.2c0-6.3,4.9-10.8,11.6-10.8h3.3v3.1h-3.3c-5,0-8.2,3.1-8.2,7.8s3.3,7.7,8.2,7.7h3.3v3h-3.3
	C720,87.9,715.1,83.5,715.1,77.2z"/>
<path class="st0" d="M739.4,69.3v6.3h8.3v3.1h-8.3v6.2h8.5V88h-11.8V66.4h11.8v3.1h-8.5V69.3z"/>
<path class="st1" d="M30.8,28.7C13.8,28.7,0,42.5,0,59.5s13.8,30.8,30.8,30.8s30.8-13.8,30.8-30.8S47.8,28.7,30.8,28.7L30.8,28.7z
	 M30.8,76c-9.1,0-16.5-7.4-16.5-16.5S21.7,43,30.8,43s16.5,7.4,16.5,16.5S39.9,76,30.8,76L30.8,76z"/>
<path class="st1" d="M30.8,0v14.4c25,0,45.2,20.2,45.2,45.1c0,8.3-2.3,16.4-6.6,23.5l12,7.9c17.3-27.9,8.7-64.7-19.2-82
	C52.8,3.1,41.9,0,30.8,0z"/>
</svg>
