<svg id="Layer_1" data-name="Layer 1" xmlns="http://www.w3.org/2000/svg" viewBox="0 0 748 91"><defs><style>.cls-1{fill:#00005a;}.cls-2{fill:#7ec13d;}</style></defs><title>Artboard 1</title><path class="cls-1" d="M492.36,15.28V24h12.75v5.81H492.36v8.68h13.19v5.82H486.1v-35h19.45V15.1H492.36Z"/><path class="cls-1" d="M693.64,15.28V24H706.4v5.81H693.64v8.68h13.19v5.82H687.39v-35h19.44V15.1H693.64Z"/><path class="cls-1" d="M132.73,35.76h-12.5l-4,8.51h-6.6l16.75-36h.18l16.75,36h-6.77Zm-2.43-5.55-3.82-9.46-3.91,9.46Z"/><path class="cls-1" d="M169.6,44.27,158.14,29.51V44.27h-6.25v-35h12.5c6,0,10.77,4.34,10.77,10.24s-4.34,9.2-9.64,9.81l12,14.93ZM158.14,15.1v9h6.08a4.64,4.64,0,0,0,4.69-4.51,4.49,4.49,0,0,0-4.52-4.52Z"/><path class="cls-1" d="M417.3,44.27,405.85,29.51V44.27H399.6v-35h12.5c6,0,10.76,4.34,10.76,10.24s-4.34,9.2-9.64,9.81l12,14.93ZM405.85,15.1v9h6.07a4.64,4.64,0,0,0,4.69-4.51,4.49,4.49,0,0,0-4.51-4.52Z"/><path class="cls-1" d="M210.9,34c0,5.81-4.69,10.24-11.28,10.24h-11.3v-35h11.3c6,0,10.58,4.34,10.58,10.24a8.5,8.5,0,0,1-3.29,7.12A8.67,8.67,0,0,1,210.9,34ZM194.32,15.1v8.6h5.3A4.08,4.08,0,0,0,204,19.44a4.2,4.2,0,0,0-4.34-4.34ZM204.39,34a4.71,4.71,0,0,0-4.77-4.52h-5.3v8.86h5.3A4.51,4.51,0,0,0,204.39,34Z"/><path class="cls-1" d="M229.66,15.28V24h12.75v5.81H229.66v8.68h13.19v5.82H223.4v-35h19.45V15.1H229.66Z"/><path class="cls-1" d="M262.43,15.1h-8.94V9.29h24.13V15.1h-8.94V44.27h-6.25Z"/><path class="cls-1" d="M327,15.19v8.68h13v5.82H327V44.27h-6.25v-35h19.61V15.1L327,15.19Z"/><path class="cls-1" d="M351,26.73a18.75,18.75,0,0,1,37.49,0,18.75,18.75,0,0,1-37.49,0Zm4.51-22.91a3.65,3.65,0,0,1,7.29,0,3.65,3.65,0,0,1-7.29,0Zm26.64,22.91a12.41,12.41,0,0,0-24.82,0,12.41,12.41,0,0,0,24.82,0Zm-5.38-23a3.65,3.65,0,0,1,7.29,0,3.64,3.64,0,0,1-3.64,3.56A3.59,3.59,0,0,1,376.75,3.73Z"/><path class="cls-1" d="M472.31,8.51V44.27h-6.25V21.53L454.25,31.86,442.36,21.44V44.27h-6.25V8.51h.09l18,15.36L472.05,8.51Z"/><path class="cls-1" d="M547,26.82c0,10.24-7.9,17.45-18.66,17.45H519v-35h9.37C539.08,9.29,547,16.49,547,26.82Zm-6.33,0c0-6.94-4.95-11.63-12.33-11.63H525.2V38.37h3.12C535.7,38.37,540.65,33.68,540.65,26.82Z"/><path class="cls-1" d="M576.93,38.45v5.82H557.57v-35h6.25V38.45Z"/><path class="cls-1" d="M588,9.29h6.25v35H588Z"/><path class="cls-1" d="M636.56,9.29V45h-.09l-22.22-22V44.27H608V8.59h.09l22.22,22V9.29Z"/><path class="cls-1" d="M748,9.29V45h-.09l-22.22-22V44.27h-6.25V8.59h.09l22.31,22V9.29Z"/><path class="cls-1" d="M674.41,44.27h-8.6c-10.85,0-18.66-7.29-18.66-17.45s7.9-17.53,18.66-17.53h6V15.1h-6c-7.37,0-12.32,4.69-12.32,11.63s5,11.64,12.32,11.64h2.35V29.69H663V23.87h11.46Z"/><path class="cls-1" d="M287.48,38.35h11A4.56,4.56,0,0,0,303,33.74a4.49,4.49,0,0,0-4.51-4.53l-1.56-.08c-6.34,0-10.5-3.31-10.5-9.83s4.86-10,10.76-10h10.07v5.83H297.2c-2.52,0-4.51,1.57-4.51,4.18s2,3.82,4.51,3.82l1.56.09c6.6,0,10.5,3.57,10.5,10.53,0,6.52-4.86,10.53-10.76,10.53h-11Z"/><path class="cls-1" d="M157.26,66.42,147,88.53h-.08l-4.55-9.77-4.54,9.77h0L127.52,66.42H131l6.77,14.74,2.83-6.08-4-8.66h3.52l2.22,4.89,2.23-4.89H148L144,75l2.83,6.17,6.77-14.74Z"/><path class="cls-1" d="M165,69.33v6.26h8.31v3.09H165v6.25h8.48V88H161.74V66.42h11.74V69.5H165Z"/><path class="cls-1" d="M197.88,77.22c0,6.34-4.88,10.8-11.57,10.8h-5.4V66.42h5.4C193,66.42,197.88,70.88,197.88,77.22Zm-3.25,0c0-4.63-3.35-7.8-8.23-7.8h-2.23V84.93h2.23C191.28,85,194.63,81.85,194.63,77.22Z"/><path class="cls-1" d="M203.85,66.42h3.26V88h-3.26Z"/><path class="cls-1" d="M250.43,66.42V88h-3.26V78.76H236.63V88h-3.26V66.42h3.26v9.26h10.54V66.42Z"/><path class="cls-1" d="M284.06,72.59a6.3,6.3,0,0,1-6.51,6.26H274V88h-3.26V66.42h6.77A6.3,6.3,0,0,1,284.06,72.59Zm-3.17,0a3.18,3.18,0,0,0-3.26-3.17H274v6.34h3.6A3.13,3.13,0,0,0,280.89,72.59Z"/><path class="cls-1" d="M289.69,81.33V66.42H293V81.33a4.13,4.13,0,0,0,4.37,4.12,4.18,4.18,0,0,0,4.37-4.12V66.42H305V81.33c0,4.12-2.92,7.2-7.55,7.2C292.6,88.53,289.69,85.36,289.69,81.33Z"/><path class="cls-1" d="M325.66,81.76c0,3.86-2.83,6.26-6.77,6.26H312V66.42h6.86a6.14,6.14,0,0,1,6.43,6.08,5.76,5.76,0,0,1-2.23,4.63A5.83,5.83,0,0,1,325.66,81.76ZM315.29,69.42V75.5h3.6a3,3,0,1,0,0-6.08Zm7.11,12.34a3.35,3.35,0,0,0-3.51-3.17h-3.6v6.34h3.6A3.41,3.41,0,0,0,322.4,81.76Z"/><path class="cls-1" d="M343.89,84.93V88H332.4V66.42h3.26V85h8.23Z"/><path class="cls-1" d="M349.61,66.42h3.25V88h-3.25Z"/><path class="cls-1" d="M358.81,77.18c0-6.32,4.88-10.76,11.57-10.76h3.25v3.07h-3.25c-5,0-8.23,3.08-8.23,7.77s3.34,7.68,8.23,7.68h3.25V88h-3.25C363.69,87.93,358.81,83.49,358.81,77.18Z"/><path class="cls-1" d="M396,69.33v6.26h8.32v3.09H396v6.25h8.49V88H392.78V66.42h11.75V69.5H396v-.17Z"/><path class="cls-1" d="M433.81,66V88h-3.25V72.6l-7.63,6.34-7.55-6.34V88h-3.25V65.91h.08l10.8,9L433.81,66Z"/><path class="cls-1" d="M455.16,72.5a6.3,6.3,0,0,1-6.52,6.26H445V88h-3.25V66.42h6.77C452.24,66.42,455.16,69,455.16,72.5Zm-3.26,0a3.18,3.18,0,0,0-3.26-3.17H445v6.35h3.6A3.09,3.09,0,0,0,451.9,72.5Z"/><path class="cls-1" d="M472,84.93V88H460.56V66.42h3.25V85H472Z"/><path class="cls-1" d="M475.44,77.22A11.58,11.58,0,1,1,487,88.54,11.42,11.42,0,0,1,475.44,77.22Zm19.89,0A8.32,8.32,0,1,0,487,85.45,8.1,8.1,0,0,0,495.33,77.22Z"/><path class="cls-1" d="M511,77.56V88h-3.26V77.56l-6.6-11.14h3.6l4.63,7.8,4.63-7.8h3.6Z"/><path class="cls-1" d="M544.13,66V88h-3.26V72.6l-7.62,6.34-7.63-6.34V88h-3.26V65.91h.09l10.8,9L544.13,66Z"/><path class="cls-1" d="M555.47,69.33v6.26h8.32v3.09h-8.32v6.25H564V88H552.22V66.42H564V69.5h-8.49Z"/><path class="cls-1" d="M588.65,66.42v22h-.09L574.85,73.62V88h-3.26V65.91h.09l13.71,14.74V66.42Z"/><path class="cls-1" d="M599.59,69.5h-5.66V66.42h14.49V69.5h-5.57V88h-3.26Z"/><path class="cls-1" d="M111.28,84.93h6.52a3.26,3.26,0,1,0,0-6.51H117c-4.45,0-6.51-2.49-6.51-6s2.31-6,6.51-6h6.09V69.5h-6.17a2.93,2.93,0,1,0,0,5.83h.77c4.54,0,6.6,2.75,6.6,6.35s-2.4,6.34-6.6,6.34h-6.43Z"/><path class="cls-1" d="M214.28,84.93h6.52a3.26,3.26,0,1,0,0-6.51H220c-4.46,0-6.52-2.49-6.52-6s2.32-6,6.52-6h6.17V69.5H220a2.93,2.93,0,1,0,0,5.83h.77c4.54,0,6.6,2.75,6.6,6.35S225,88,220.8,88h-6.43V84.93Z"/><path class="cls-1" d="M625.43,84.93h6.51a3.26,3.26,0,1,0,0-6.51h-.77c-4.46,0-6.51-2.49-6.51-6s2.31-6,6.51-6h6.17V69.5h-6.17a2.93,2.93,0,1,0,0,5.83h.77c4.54,0,6.6,2.75,6.6,6.35s-2.4,6.34-6.6,6.34h-6.43l-.08-3.09Z"/><path class="cls-1" d="M648.4,69.33v6.26h8.31v3.09H648.4v6.25h8.48V88H645.14V66.42h11.74V69.5H648.4Z"/><path class="cls-1" d="M674.94,87.93l-7.54-9.47V88h-3.26V66.42h7.11a6.28,6.28,0,0,1,6.52,6.15c0,3.5-2.83,5.89-6.43,6.06L678.88,88h-3.94ZM667.4,69.49v6.24h3.85a3.12,3.12,0,1,0,0-6.24Z"/><path class="cls-1" d="M701.31,66.42,691,88.36h-.09L680.65,66.42h3.52l6.77,14.63,6.77-14.63Z"/><path class="cls-1" d="M705.91,66.42h3.26V88h-3.26Z"/><path class="cls-1" d="M715.14,77.18c0-6.32,4.89-10.76,11.57-10.76H730v3.07h-3.26c-5,0-8.23,3.08-8.23,7.77s3.35,7.68,8.23,7.68H730V88h-3.26C720,87.93,715.14,83.49,715.14,77.18Z"/><path class="cls-1" d="M739.37,69.33v6.26h8.32v3.09h-8.32v6.25h8.49V88H736.11V66.42h11.75V69.5h-8.49Z"/><path class="cls-2" d="M30.82,28.72A30.83,30.83,0,1,0,61.65,59.55,30.83,30.83,0,0,0,30.82,28.72Zm0,47.3A16.47,16.47,0,1,1,47.29,59.55,16.47,16.47,0,0,1,30.82,76Z"/><path class="cls-2" d="M30.82,0V14.41A45.15,45.15,0,0,1,69.43,83l12,7.94A59.55,59.55,0,0,0,30.82,0Z"/></svg>