<?xml version="1.0" encoding="UTF-8"?>
<svg width="49px" height="34px" viewBox="0 0 49 34" version="1.1" xmlns="http://www.w3.org/2000/svg" xmlns:xlink="http://www.w3.org/1999/xlink">
    <title>F8ADF1E9-25C6-4C0B-BCF8-4A09C676F671@2x</title>
    <g id="Ikonguide" stroke="none" stroke-width="1" fill="none" fill-rule="evenodd">
        <g transform="translate(-932.000000, -737.000000)" fill="#ffffff" id="Group">
            <g transform="translate(924.000000, 722.000000)" id="🟢-COLOR">
                <path d="M55.0446649,20.1972662 C54.4926246,18.1515071 52.8661227,16.5403312 50.8009592,15.9935556 C47.057702,15 32.0476715,15 32.0476715,15 C32.0476715,15 17.0377289,15 13.2943839,15.9935556 C11.2292204,16.5404177 9.60271846,18.1515071 9.05067812,20.1972662 C8.04767153,23.9053236 8.04767153,31.6418397 8.04767153,31.6418397 C8.04767153,31.6418397 8.04767153,39.3783558 9.05067812,43.0864132 C9.60271846,45.1321723 11.2292204,46.6762231 13.2943839,47.2229987 C17.0377289,48.2165543 32.0476715,48.2165543 32.0476715,48.2165543 C32.0476715,48.2165543 47.0576141,48.2165543 50.8009592,47.2229987 C52.8661227,46.6762231 54.4926246,45.1321723 55.0446649,43.0864132 C56.0476715,39.3783558 56.0476715,31.6418397 56.0476715,31.6418397 C56.0476715,31.6418397 56.0476715,23.9053236 55.0446649,20.1972662 Z M27.1385467,38.6660164 L27.1385467,24.617663 L39.6839513,31.6420127 L27.1385467,38.6660164 Z"></path>
            </g>
        </g>
    </g>
</svg>