<?xml version="1.0" encoding="UTF-8"?>
<svg width="48px" height="48px" viewBox="0 0 48 48" version="1.1" xmlns="http://www.w3.org/2000/svg" xmlns:xlink="http://www.w3.org/1999/xlink">
    <title>1BFE943B-1B7E-4407-9945-85C6B1470069@2x</title>
    <g id="Ikonguide" stroke="none" stroke-width="1" fill="none" fill-rule="evenodd">
        <g transform="translate(-680.000000, -730.000000)" fill="#ffffff" id="Group">
            <g transform="translate(672.000000, 722.000000)" id="🟢-COLOR">
                <path d="M32.0053542,19.6934062 C25.1948689,19.6934062 19.7015059,25.1879951 19.7015059,32 C19.7015059,38.8120049 25.1948689,44.3065938 32.0053542,44.3065938 C38.8158394,44.3065938 44.3092025,38.8120049 44.3092025,32 C44.3092025,25.1879951 38.8158394,19.6934062 32.0053542,19.6934062 Z M32.0053542,40.0008926 C27.6042387,40.0008926 24.0062465,36.4128082 24.0062465,32 C24.0062465,27.5871918 27.5935304,23.9991074 32.0053542,23.9991074 C36.4171779,23.9991074 40.0044618,27.5871918 40.0044618,32 C40.0044618,36.4128082 36.4064696,40.0008926 32.0053542,40.0008926 L32.0053542,40.0008926 Z M47.6823201,19.1900033 C47.6823201,20.7858976 46.3973229,22.0604708 44.812493,22.0604708 C43.2169548,22.0604708 41.9426659,20.7751869 41.9426659,19.1900033 C41.9426659,17.6048198 43.2276631,16.3195359 44.812493,16.3195359 C46.3973229,16.3195359 47.6823201,17.6048198 47.6823201,19.1900033 Z M55.8313441,22.1033136 C55.6493028,18.2581725 54.7712214,14.85217 51.9549359,12.0459668 C49.1493586,9.23976347 45.744116,8.36148611 41.8998327,8.16869352 C37.9377579,7.94376883 26.0622421,7.94376883 22.1001673,8.16869352 C18.2665923,8.35077541 14.8613497,9.22905277 12.0450641,12.0352561 C9.22877858,14.8414593 8.36140547,18.2474618 8.16865588,22.0926029 C7.94378137,26.0555618 7.94378137,37.9337275 8.16865588,41.8966864 C8.35069716,45.7418275 9.22877858,49.14783 12.0450641,51.9540332 C14.8613497,54.7602365 18.255884,55.6385139 22.1001673,55.8313065 C26.0622421,56.0562312 37.9377579,56.0562312 41.8998327,55.8313065 C45.744116,55.6492246 49.1493586,54.7709472 51.9549359,51.9540332 C54.7605131,49.14783 55.6385945,45.7418275 55.8313441,41.8966864 C56.0562186,37.9337275 56.0562186,26.0662725 55.8313441,22.1033136 Z M50.7127719,46.1488341 C49.8775237,48.2481312 48.2605689,49.8654468 46.1510318,50.7115921 C42.9920803,51.9647439 35.4962632,51.6755551 32.0053542,51.6755551 C28.5144451,51.6755551 21.0079197,51.9540332 17.8596765,50.7115921 C15.7608477,49.8761575 14.1438929,48.2588419 13.2979364,46.1488341 C12.0450641,42.9891777 12.3341885,35.4916881 12.3341885,32 C12.3341885,28.5083119 12.0557724,21.0001116 13.2979364,17.8511659 C14.1331846,15.7518688 15.7501394,14.1345532 17.8596765,13.2884079 C21.018628,12.0352561 28.5144451,12.3244449 32.0053542,12.3244449 C35.4962632,12.3244449 43.0027886,12.0459668 46.1510318,13.2884079 C48.2498606,14.1238425 49.8668154,15.7411581 50.7127719,17.8511659 C51.9656442,21.0108223 51.6765198,28.5083119 51.6765198,32 C51.6765198,35.4916881 51.9656442,42.9998884 50.7127719,46.1488341 Z"></path>
            </g>
        </g>
    </g>
</svg>