<?xml version="1.0" encoding="UTF-8"?>
<svg width="48px" height="44px" viewBox="0 0 48 44" version="1.1" xmlns="http://www.w3.org/2000/svg" xmlns:xlink="http://www.w3.org/1999/xlink">
    <title>DE0622A1-7DDC-465E-8FB0-C94959404F70@2x</title>
    <g id="Ikonguide" stroke="none" stroke-width="1" fill="none" fill-rule="evenodd">
        <g transform="translate(-764.000000, -732.000000)" fill="#ffffff" id="Group">
            <g transform="translate(756.000000, 722.000000)" id="🟢-COLOR">
                <path d="M56,54 L45.3913452,54 L45.3913452,38.5322405 C45.3913452,34.4835756 43.7318909,31.7196645 40.0827846,31.7196645 C37.2916275,31.7196645 35.7394167,33.5848114 35.0169332,35.3823398 C34.7460019,36.0275341 34.7883349,36.9262983 34.7883349,37.8250624 L34.7883349,54 L24.2784572,54 C24.2784572,54 24.4139229,26.6003714 24.2784572,24.1097522 L34.7883349,24.1097522 L34.7883349,28.800794 C35.4092192,26.7496958 38.7676388,23.8223731 44.1269991,23.8223731 C50.7761054,23.8223731 56,28.1217904 56,37.3799065 L56,54 L56,54 Z M13.650047,20.371006 L13.5823142,20.371006 C10.1956726,20.371006 8,18.0860601 8,15.1897291 C8,12.2370494 10.2605833,10 13.7149577,10 C17.1665099,10 19.2888053,12.2314145 19.3565381,15.1812768 C19.3565381,18.0776077 17.1665099,20.371006 13.650047,20.371006 L13.650047,20.371006 L13.650047,20.371006 Z M9.21072437,24.1097522 L18.5663217,24.1097522 L18.5663217,54 L9.21072437,54 L9.21072437,24.1097522 L9.21072437,24.1097522 Z"></path>
            </g>
        </g>
    </g>
</svg>