<?xml version="1.0" encoding="UTF-8"?>
<svg width="48px" height="48px" viewBox="0 0 48 48" version="1.1" xmlns="http://www.w3.org/2000/svg" xmlns:xlink="http://www.w3.org/1999/xlink">
    <title>4F063E4A-ABE0-4274-8DF1-FED99D9FC544@2x</title>
    <g id="Ikonguide" stroke="none" stroke-width="1" fill="none" fill-rule="evenodd">
        <g transform="translate(-596.000000, -730.000000)" fill="#ffffff" id="Group">
            <g transform="translate(588.000000, 722.000000)" id="🟢-COLOR">
                <path d="M56,13.1428571 L56,50.8571429 C56,53.6964286 53.6964286,56 50.8571429,56 L41.7178571,56 L41.7178571,37.0142857 L48.2107143,37.0142857 L49.1428571,29.7714286 L41.7178571,29.7714286 L41.7178571,25.1428571 C41.7178571,23.0428571 42.2964286,21.6178571 45.3071429,21.6178571 L49.1428571,21.6178571 L49.1428571,15.1464286 C48.4785714,15.0607143 46.2071429,14.8571429 43.55,14.8571429 C38.0214286,14.8571429 34.2285714,18.2321429 34.2285714,24.4357143 L34.2285714,29.7821429 L27.7142857,29.7821429 L27.7142857,37.025 L34.2392857,37.025 L34.2392857,56 L13.1428571,56 C10.3035714,56 8,53.6964286 8,50.8571429 L8,13.1428571 C8,10.3035714 10.3035714,8 13.1428571,8 L50.8571429,8 C53.6964286,8 56,10.3035714 56,13.1428571 Z"></path>
            </g>
        </g>
    </g>
</svg>